# xmcd
#
# Track frame offsets:
#	150
#	16735
#	31467
#	43990
#	60414
#	78202
#
# Disc length: 1199 seconds
#
# Revision: 1
# Processed by: cddbd v1.5.2PL0 Copyright (c) Steve Scherf et al.
# Submitted via: audiograbber 1.83.01
#
DISCID=3e04ad06
DTITLE=Taylor Swift - The Taylor Swift Holiday Collection
DYEAR=2019
DGENRE=Christmas
TTITLE0=Last Christmas
TTITLE1=Christmases When You Were Mine
TTITLE2=Santa Baby
TTITLE3=Silent Night
TTITLE4=Christmas Must Be Something More
TTITLE5=White Christmas
EXTD=
EXTT0=
EXTT1=
EXTT2=
EXTT3=
EXTT4=
EXTT5=
PLAYORDER=
